<svg width="137" height="37" viewBox="0 0 137 37" fill="none" xmlns="http://www.w3.org/2000/svg">
<path d="M17.3362 36.3035H11.922L0 7.50061H5.4142L17.3362 36.3035ZM17.2788 36.3035H11.8646L23.7866 7.50061H29.2008L17.2788 36.3035Z" fill="#73D1D4"/>
<path d="M43.6558 36.9417C41.5439 36.9417 39.5575 36.5393 37.693 35.7308C35.8285 34.9224 34.1971 33.8264 32.7987 32.4395C31.3968 31.0525 30.2924 29.4392 29.4857 27.5923C28.6789 25.7454 28.2773 23.7835 28.2773 21.7031C28.2773 19.5867 28.6789 17.6033 29.4857 15.7564C30.2924 13.9095 31.3968 12.2926 32.7987 10.9092C34.2007 9.52226 35.8321 8.42634 37.693 7.61788C39.5539 6.80942 41.5439 6.40698 43.6558 6.40698C45.7283 6.40698 47.6968 6.80942 49.5577 7.61788C51.4186 8.42634 53.0428 9.52226 54.4233 10.9092C55.8037 12.2926 56.9009 13.9095 57.7076 15.7564C58.5144 17.6033 58.916 19.5867 58.916 21.7031C58.916 23.78 58.5144 25.7418 57.7076 27.5923C56.9009 29.4392 55.8073 31.0561 54.4233 32.4395C53.0428 33.8229 51.4186 34.9224 49.5577 35.7308C47.6968 36.5357 45.7283 36.9417 43.6558 36.9417ZM43.6558 11.8327C42.2754 11.8327 40.9667 12.0914 39.7404 12.6124C38.5105 13.1334 37.4456 13.8341 36.5457 14.718C35.6421 15.6055 34.9214 16.6439 34.3871 17.8333C33.8493 19.0262 33.5804 20.3161 33.5804 21.6995C33.5804 23.0829 33.8493 24.3728 34.3871 25.5658C34.925 26.7587 35.6457 27.8079 36.5457 28.7134C37.4492 29.6189 38.5141 30.3303 39.7404 30.8477C40.9702 31.3651 42.2754 31.6274 43.6558 31.6274C45.0363 31.6274 46.3342 31.3687 47.5426 30.8477C48.7509 30.3267 49.8087 29.6153 50.7086 28.7134C51.6122 27.8079 52.3221 26.7623 52.8385 25.5658C53.3584 24.3728 53.6165 23.0829 53.6165 21.6995C53.6165 20.3161 53.3584 19.0262 52.8385 17.8333C52.3221 16.6403 51.6086 15.6019 50.7086 14.718C49.8051 13.8341 48.7509 13.1298 47.5426 12.6124C46.3342 12.0914 45.0363 11.8327 43.6558 11.8327Z" fill="#73D1D4"/>
<path d="M68.5949 36.3054H63.5249V0H68.5949V36.3054Z" fill="#73D1D4"/>
<path d="M80.6307 11.4877C80.8996 10.4493 81.4087 9.59412 82.1581 8.91861C82.9075 8.24668 83.7143 7.72568 84.5784 7.35917C85.4425 6.99267 86.2959 6.74474 87.1421 6.6082C87.9847 6.47525 88.6408 6.40698 89.0998 6.40698C91.2906 6.40698 93.1802 6.67647 94.7721 7.21545C96.3641 7.75442 97.6729 8.60241 98.6876 9.75582C99.7059 10.9092 100.462 12.4219 100.964 14.2868C101.463 16.1552 101.714 18.4154 101.714 21.0671V36.3632H96.5291V20.8946C96.5291 19.7017 96.4323 18.5663 96.2422 17.4883C96.0486 16.4104 95.6865 15.4474 95.1486 14.603C94.6108 13.7586 93.8829 13.0723 92.9614 12.5549C92.0399 12.0339 90.8316 11.7177 89.3328 11.6027C88.2966 11.6027 87.2604 11.7967 86.2242 12.1812C85.1879 12.5657 84.2664 13.1334 83.4597 13.8844C82.6529 14.6353 81.9896 15.548 81.4733 16.626C80.9534 17.7039 80.6952 18.9364 80.6952 20.3197V36.3668H75.4531V7.44541H80.6952L80.6307 11.4877Z" fill="#73D1D4"/>
<path d="M132.642 24.4742C132.642 25.9366 132.642 27.3703 132.642 28.7752C132.642 30.1802 132.631 31.4306 132.613 32.5265C132.591 33.6224 132.584 34.5099 132.584 35.1819C132.584 35.8538 132.584 36.2131 132.584 36.249H127.285V33.2344C126.17 34.6034 124.825 35.5735 123.251 36.1448C121.677 36.7162 120.063 37 118.414 37C117.069 37 115.725 36.7988 114.384 36.3928C113.039 35.9903 111.831 35.3831 110.755 34.5746C109.68 33.7662 108.816 32.7565 108.163 31.5456C107.51 30.3347 107.184 28.919 107.184 27.302C107.184 25.6492 107.464 24.2227 108.02 23.0298C108.575 21.8368 109.346 20.8667 110.325 20.1157C111.304 19.3647 112.455 18.8186 113.782 18.47C115.105 18.1251 116.553 17.949 118.131 17.949C119.511 17.949 120.981 18.064 122.537 18.294C124.094 18.5239 125.678 18.8904 127.288 19.3899V19.1599C127.364 18.8509 127.403 18.5814 127.403 18.3515C127.403 18.1215 127.403 17.87 127.403 17.6005C127.403 16.5621 127.202 15.6566 126.797 14.8877C126.396 14.1187 125.865 13.4827 125.212 12.9833C124.56 12.4838 123.821 12.1101 122.996 11.8586C122.172 11.6071 121.315 11.4849 120.433 11.4849C119.587 11.4849 118.762 11.5819 117.955 11.7724C117.148 11.9664 116.42 12.2718 115.764 12.6958C115.112 13.1198 114.574 13.648 114.151 14.284C113.728 14.92 113.498 15.6781 113.459 16.5621H108.159C108.274 14.8697 108.686 13.3893 109.396 12.1173C110.106 10.8489 111.01 9.79972 112.103 8.97329C113.197 8.14687 114.438 7.52165 115.818 7.09766C117.202 6.67367 118.622 6.46167 120.081 6.46167C121.77 6.46167 123.366 6.69163 124.861 7.15515C126.36 7.61508 127.672 8.34808 128.805 9.34698C129.938 10.3495 130.842 11.6286 131.512 13.1845C132.183 14.7439 132.538 16.6375 132.577 18.8689V19.1563C133.154 19.0809 133.739 18.9839 134.334 18.8689C134.929 18.7539 135.553 18.6174 136.206 18.4664V23.8921L132.642 24.4742ZM127.342 24.6C127.113 24.6 126.7 24.5209 126.105 24.3664C125.51 24.2119 124.818 24.0466 124.033 23.8706C123.244 23.6981 122.401 23.5328 121.498 23.3783C120.594 23.2238 119.723 23.1448 118.877 23.1448C118.224 23.1448 117.525 23.213 116.775 23.3496C116.026 23.4861 115.334 23.7268 114.703 24.0754C114.068 24.4239 113.541 24.8695 113.118 25.412C112.695 25.9546 112.484 26.6301 112.484 27.4458C112.484 28.1033 112.666 28.7034 113.032 29.246C113.398 29.7885 113.886 30.2628 114.502 30.6688C115.115 31.0749 115.825 31.3947 116.632 31.6282C117.439 31.8618 118.303 31.9768 119.224 31.9768C120.3 31.9768 121.318 31.7935 122.276 31.4234C123.233 31.0569 124.09 30.6006 124.839 30.058C125.589 29.5154 126.184 28.9369 126.625 28.3153C127.066 27.6973 127.306 27.1332 127.346 26.6301V24.6H127.342Z" fill="#73D1D4"/>
</svg>
